<?xml version="1.0" encoding="UTF-8"?>
<svg id="Layer_1" data-name="Layer 1" xmlns="http://www.w3.org/2000/svg" viewBox="0 0 256 384">
  <defs>
    <style>
      .cls-1 {
        fill: #fbffa2;
      }
    </style>
  </defs>
  <path class="cls-1" d="M96,371.8V12.1c0-6.7-5.4-12.1-12.2-12.1H12.2C5.4,0,0,5.4,0,12.1v359.7c0,6.7,5.4,12.2,12.2,12.2h71.6c6.8,0,12.2-5.4,12.2-12.2Z"/>
  <path class="cls-1" d="M243.8,0h-71.6c-6.7,0-12.2,5.4-12.2,12.1v359.7c0,6.7,5.4,12.2,12.2,12.2h71.6c6.7,0,12.2-5.4,12.2-12.2V12.1c0-6.7-5.4-12.1-12.2-12.1Z"/>
</svg>