<?xml version="1.0" encoding="UTF-8"?>
<svg id="Capa_1" data-name="Capa 1" xmlns="http://www.w3.org/2000/svg" viewBox="0 0 797.63 800">
  <defs>
    <style>
      .cls-1 {
        fill: #f6ff43;
      }
    </style>
  </defs>
  <path class="cls-1" d="M765,372.11c-18.62,0-33.98,13.56-33.98,32.35-1.63,122.36-72.21,232.96-180.19,292.26-162.71,89.36-352.87,9.15-425.73-99.65l102.76,21.4c16.99,3.43,35.61-6.86,39.04-25.49,3.43-16.99-6.86-35.61-25.49-39.04l-202.08-42.48c-11.76-2.78-42.64,5.72-39.04,37.41l25.49,203.88c1.63,16.99,15.36,28.92,32.35,28.92,25.32,0,35.61-18.62,33.98-37.41l-11.93-99.49c165.16,198.16,374.76,170.55,501.21,113.21,130.86-69.76,214.17-203.88,215.81-351.89.16-18.62-13.56-33.98-32.18-33.98h-.02Z"/>
  <path class="cls-1" d="M32.46,427.81c18.62,0,33.98-13.56,33.98-32.35,1.63-122.36,72.21-232.96,180.19-292.26,162.71-89.36,352.87-9.15,425.73,99.65l-102.76-21.4c-16.99-3.43-35.61,6.86-39.04,25.49-3.43,16.99,6.86,35.61,25.49,39.04l202.25,42.48c11.76,2.78,42.64-5.72,39.04-37.41l-25.49-203.88c-1.63-16.99-15.36-28.92-32.35-28.92-25.32,0-35.61,18.62-33.98,37.41l11.76,99.49C552.13-42.84,342.53-15.4,216.09,42.11,85.23,111.7,1.91,245.99.12,393.83c0,18.79,13.72,33.98,32.35,33.98h0Z"/>
</svg>